# xmcd CD database file
#
# Track frame offsets:
#	150
#	19306
#	40216
#	66554
#
# Disc length: 1106 seconds
#
# Revision: 2
# Processed by: cddbd v1.5.2PL0 Copyright (c) Steve Scherf et al.
# Submitted via: CDex 1.70beta2
#
DISCID=35045004
DTITLE=ACE OF SPADES - WILD TRIBE
DYEAR=2012
DGENRE=Rock
TTITLE0=WILD TRIBE
TTITLE1=NOW HERE
TTITLE2=誓い
TTITLE3=Just Like Heaven
EXTD=YEAR: 2012
EXTT0=
EXTT1=
EXTT2=
EXTT3=
PLAYORDER=
